<?xml version="1.0" encoding="UTF-8"?>
<svg xmlns="http://www.w3.org/2000/svg" id="Layer_1" viewBox="0 0 656.32 561.08">
  <defs>
    <style>.cls-1{fill:#a98a50;}.cls-2{fill:#2a676f;}</style>
  </defs>
  <path class="cls-2" d="m459.25,294.57h0c0,3.19-.02,6.38-.02,9.57,0,2.4-.3,4.77-.71,7.13-.89,5.07-2.45,9.95-4.55,14.66-2.98,6.67-6.92,12.74-11.55,18.38-4.8,5.85-10.22,11.06-16.1,15.81-8.99,7.25-18.79,13.2-29.23,18.13-10.15,4.8-20.7,8.49-31.62,11.13-3.51.85-7.03,1.59-10.59,2.18-1.91.31-3.83.63-5.74.9-1.41.2-2.83.36-4.25.51-1.42.15-2.84.25-4.26.39-2.39.22-4.78.33-7.18.42-1.1.04-2.21.04-3.31.05-4.55.04-9.1-.08-13.64-.49-1.93-.18-3.86-.33-5.79-.56-2.78-.33-5.55-.74-8.31-1.22-4.43-.76-8.83-1.7-13.18-2.83-13.86-3.6-27.04-8.85-39.5-15.91-7.89-4.47-15.32-9.61-22.17-15.56-5.48-4.76-10.49-9.97-14.89-15.75-3.88-5.12-7.18-10.58-9.72-16.49-2.26-5.26-3.83-10.72-4.55-16.4-.36-2.8-.55-5.62-.55-8.44,0-16.61,0-33.23,0-49.84v-27.79c0-.46.02-.92-.01-1.37.02-.31.01-.52,0-.89v-21.12c.05-.13,0-.24,0-.37,0-.01,0-.03,0-.04.03-.29.02-.59.02-.89v-23.54c0-1.32.1-2.64.51-3.9,1.11-3.41,3.44-5.51,6.98-6.21,4.38-.87,9.17,1.82,10.33,6.76.14.6.19,1.22.24,1.83.04.53.02,1.07.02,1.61v11.6c0,21.44,0,42.88,0,64.32,0,16.48,0,32.96,0,49.45,0,1.45,0,2.9.1,4.35.2,2.72.67,5.38,1.41,8,1.35,4.82,3.48,9.3,6.14,13.53,2.94,4.69,6.43,8.95,10.32,12.89,4.96,5.04,10.44,9.47,16.3,13.42,8.78,5.93,18.18,10.68,28.08,14.45,6.83,2.6,13.81,4.68,20.95,6.24,3.44.75,6.91,1.38,10.41,1.87,2.35.32,4.7.6,7.06.82,4.46.41,8.92.62,13.4.55,2.56-.04,5.12-.14,7.67-.32,2.68-.19,5.37-.45,8.03-.8,14.63-1.91,28.65-5.94,42.06-12.07,7.61-3.47,14.86-7.58,21.68-12.43,5.61-3.99,10.83-8.43,15.53-13.46,3.7-3.96,7.01-8.23,9.74-12.92,2.31-3.97,4.15-8.14,5.3-12.59.81-3.11,1.29-6.26,1.27-9.47,0-.62,0-1.24,0-1.85,0-21.07,0-42.14,0-63.2,0-13.46,0-26.93,0-40.39,0-7.5,0-15,0-22.49,0-.21,0-.41,0-.62.02-.9.1-1.79.36-2.65.4-1.3.97-2.41,1.71-3.34.9-1.07,2.06-1.94,3.37-2.49.05-.02.11-.05.17-.07,0,0,.02,0,.03-.01.38-.14.77-.27,1.19-.37.05-.01.1-.02.14-.03.17-.04.35-.08.53-.11,4.41-.82,9.04,1.95,10.19,6.65.06.26.12.53.13.79.04,1.05.08,2.09.08,3.14,0,.73,0,1.46,0,2.18l-.04,117.6Z"></path>
  <path class="cls-2" d="m243.91,317.03c-3.34,0-6.05-2.71-6.05-6.06V6.07c0-3.35,2.71-6.06,6.05-6.06s6.05,2.71,6.05,6.06v304.89c0,3.35-2.71,6.06-6.05,6.06"></path>
  <path class="cls-2" d="m413.57,317.08c-3.34,0-6.05-2.71-6.05-6.06V6.06c0-3.35,2.71-6.06,6.05-6.06s6.05,2.71,6.05,6.06v304.96c0,3.35-2.71,6.06-6.05,6.06"></path>
  <path class="cls-2" d="m272.21,341.72c-3.34,0-6.05-2.71-6.05-6.05v-123.48c0-3.34,2.71-6.05,6.05-6.05s6.05,2.71,6.05,6.05v123.48c0,3.34-2.71,6.05-6.05,6.05"></path>
  <path class="cls-2" d="m385.38,341.72c-3.34,0-6.05-2.71-6.05-6.05v-123.48c0-3.34,2.71-6.05,6.05-6.05s6.05,2.71,6.05,6.05v123.48c0,3.34-2.71,6.05-6.05,6.05"></path>
  <path class="cls-2" d="m357.09,353.49c-3.34,0-6.05-2.71-6.05-6.05v-182.83c0-3.34,2.71-6.05,6.05-6.05s6.05,2.71,6.05,6.05v182.83c0,3.34-2.71,6.05-6.05,6.05"></path>
  <path class="cls-2" d="m300.51,353.49c-3.34,0-6.05-2.71-6.05-6.05v-182.83c0-3.34,2.71-6.05,6.05-6.05s6.05,2.71,6.05,6.05v182.83c0,3.34-2.71,6.05-6.05,6.05"></path>
  <path class="cls-2" d="m328.8,356.99c-3.34,0-6.05-2.71-6.05-6.05v-197.25c0-3.34,2.71-6.05,6.05-6.05s6.05,2.71,6.05,6.05v197.25c0,3.34-2.71,6.05-6.05,6.05"></path>
  <path class="cls-1" d="m316.19,120.14c-.32-.12-.65-.25-.98-.37-2.38-.88-4.76-1.75-7.14-2.63-2.26-.83-4.52-1.67-6.77-2.51-2.1-.78-4.21-1.55-6.31-2.32-1.91-.71-3.83-1.41-5.73-2.13-.7-.26-1.43-.49-2.09-.84-1.63-.87-2.4-2.28-2.31-4.12.09-1.89,1.51-3.48,3.36-3.89,1.03-.23,1.99-.03,2.96.33,2.1.78,4.2,1.55,6.31,2.33,1.58.58,3.16,1.17,4.74,1.76,1.59.59,3.19,1.17,4.78,1.75,1.57.58,3.15,1.17,4.72,1.75,1.37.51,2.73,1.01,4.1,1.51,1.49.55,2.97,1.1,4.46,1.65,1.37.5,2.73,1.01,4.1,1.51,1.42.52,2.83,1.05,4.25,1.56.11.04.25.04.36,0,2.26-.82,4.52-1.65,6.78-2.49,3.09-1.14,6.18-2.29,9.27-3.44,1.58-.58,3.16-1.15,4.74-1.74,1.4-.52,2.79-1.04,4.19-1.56,1.58-.58,3.16-1.16,4.74-1.75,1.43-.53,2.86-1.06,4.29-1.58,1.33-.49,2.67-.99,4.01-1.47,2.29-.8,4.77.41,5.55,2.7.73,2.16-.39,4.56-2.55,5.4-1.84.71-3.7,1.37-5.55,2.06-1.54.57-3.08,1.15-4.62,1.72-1.64.61-3.27,1.21-4.91,1.81-1.4.52-2.81,1.04-4.21,1.56-1.94.72-3.89,1.43-5.84,2.15-1.12.41-2.24.83-3.36,1.24-.04.01-.07.04-.14.08.09.04.15.07.22.1,1.6.59,3.2,1.18,4.8,1.77,1.8.66,3.6,1.33,5.4,1.99,1.37.51,2.73,1.02,4.1,1.52,1.86.68,3.03,2.45,2.89,4.43-.13,1.89-1.57,3.51-3.42,3.89-1.01.21-1.95.01-2.89-.34-1.46-.55-2.93-1.08-4.4-1.62-1.37-.5-2.73-1.01-4.1-1.52-1.44-.53-2.88-1.06-4.32-1.59-1.42-.52-2.83-1.05-4.25-1.57-1.42-.52-2.84-1.04-4.25-1.56-.73-.27-1.46-.54-2.19-.81-.09-.03-.21-.03-.3,0-1.66.61-3.32,1.23-4.98,1.84-1.42.52-2.85,1.04-4.27,1.56-1.35.5-2.7,1.01-4.06,1.51-1.6.59-3.21,1.18-4.81,1.78-1.94.72-3.88,1.42-5.82,2.15-2.56.96-5.36-.63-5.82-3.31-.35-2.05.82-4.06,2.77-4.79,2.45-.91,4.89-1.82,7.34-2.72,2.34-.87,4.68-1.72,7.02-2.59.06-.02.12-.05.17-.08,0-.02,0-.04,0-.06"></path>
  <path class="cls-2" d="m317.94,73.42c-.48.07-.92.12-1.36.2-1.21.21-2.42.39-3.61.64-2.06.44-4.13.88-6.17,1.39-1.77.44-3.52.98-5.29,1.48-2.52.71-5-.84-5.53-3.29-.48-2.21.78-4.43,3.03-5.12,2.05-.63,4.11-1.21,6.19-1.73,2.03-.51,4.07-.94,6.12-1.36,1.33-.28,2.68-.48,4.03-.7.64-.11,1.28-.19,1.92-.29.03,0,.06-.03.11-.05-.13-.09-.24-.18-.36-.25-2.18-1.48-4.42-2.86-6.75-4.1-1.2-.63-2.01-1.58-2.36-2.91-.63-2.37.97-4.89,3.39-5.34,1.12-.21,2.17,0,3.17.52,2.39,1.26,4.7,2.66,6.94,4.17.95.64,1.88,1.31,2.82,1.97.05.04.11.07.2.13v-.31c0-2.16,0-4.33,0-6.49,0-.77.07-1.53.4-2.24.67-1.42,1.77-2.29,3.32-2.54,2.43-.4,4.6,1.28,4.99,3.6.07.4.08.81.08,1.22,0,2.16,0,4.31,0,6.47v.3c.14-.1.24-.16.34-.24,3.07-2.22,6.26-4.26,9.62-6.03.85-.45,1.75-.69,2.71-.59,1.24.12,2.27.68,3.05,1.67.52.66.84,1.42.9,2.26.14,1.96-.69,3.41-2.39,4.34-1.72.95-3.43,1.92-5.08,2.99-.7.45-1.39.91-2.12,1.4.08.03.13.06.17.07,1.13.18,2.26.33,3.39.53,1.38.24,2.76.49,4.14.78,2.5.52,4.99,1.11,7.45,1.81,1.16.33,2.32.64,3.45,1.06,1.58.59,2.53,1.77,2.82,3.44.32,1.77-.62,3.64-2.22,4.5-1.15.62-2.35.69-3.58.31-2.95-.92-5.94-1.7-8.97-2.34-1.72-.37-3.46-.66-5.2-.98-.65-.12-1.3-.21-1.99-.32.03.07.05.11.07.14,3.96,4.77,7.62,9.76,11.05,14.92.41.62.86,1.23,1.11,1.95.89,2.52-.54,5.23-3.19,5.78-1.9.39-3.45-.29-4.57-1.86-.83-1.17-1.59-2.39-2.41-3.57-1.88-2.73-3.83-5.4-5.88-8.02-.84-1.07-1.7-2.13-2.56-3.19-.02-.03-.05-.06-.11-.12,0,.13-.01.22-.01.3,0,3.38,0,6.76,0,10.13,0,3.52-.01,7.04-.02,10.56,0,1.01.02,2.01.02,3.02,0,.7-.02,1.4-.26,2.06-.58,1.58-1.69,2.57-3.34,2.9-2.13.42-4.17-.85-4.88-2.77-.26-.7-.3-1.43-.3-2.16,0-3.75.01-7.51.02-11.26,0-1.83,0-3.67,0-5.5,0-2.34-.01-4.69-.02-7.03,0-.07,0-.14,0-.21-.02,0-.03,0-.05-.01-.25.3-.5.6-.75.91-2.15,2.65-4.23,5.36-6.19,8.16-1.28,1.83-2.54,3.67-3.78,5.53-.7,1.05-1.6,1.81-2.85,2.11-2.32.56-4.71-.9-5.25-3.23-.3-1.29-.04-2.49.68-3.59,1.01-1.53,2.04-3.06,3.08-4.57,2.2-3.18,4.52-6.28,6.95-9.3.52-.65,1.05-1.29,1.58-1.94.03-.03.05-.07.1-.15"></path>
  <path class="cls-2" d="m0,482.97h8.01v6.67c0,5.75,3.98,9.79,9.03,9.79h19.92c4.38,0,8.44-1.66,8.79-6.48-.13-3.01-1.91-5.29-6.43-5.29h-21.64c-.48-18.96,6-26.28,16.89-26.28h13.17v8.08h-12.53c-4.03,0-8.28,1.82-8.79,10.14h12.93c8.44,0,14.41,5.48,14.33,12.69.05,8.06-7.48,14.81-16.29,14.84h-20.81c-9.38-.03-16.59-7.21-16.59-17.47v-6.7Z"></path>
  <path class="cls-2" d="m87.17,493.95h-5.78c-1.77,7.86-8.36,13.15-16.56,13.15h-8.71v-7.73h8.69c5.03,0,9.06-4.04,9.06-9.76v-28.15h7.99v24.9h5.32v7.59Z"></path>
  <rect class="cls-2" x="86.07" y="486.36" width="22.37" height="7.59"></rect>
  <rect class="cls-2" x="107.91" y="486.36" width="18.47" height="7.59"></rect>
  <rect class="cls-2" x="118.13" y="486.36" width="18.47" height="7.59"></rect>
  <rect class="cls-2" x="122.85" y="486.36" width="18.47" height="7.59"></rect>
  <rect class="cls-2" x="133.08" y="486.36" width="18.47" height="7.59"></rect>
  <rect class="cls-2" x="151.01" y="486.36" width="33.32" height="7.59"></rect>
  <path class="cls-2" d="m231.56,486.36v7.6h-48.77v-7.6h10.65c-6.69-9.74-.75-25.98,14.52-25.98,9.01,0,17.58,6.83,17.75,17.3l.03,8.68h5.83Zm-34.74-35.02c0-2.28,1.91-4.12,4.44-4.12s4.44,1.84,4.44,4.12-1.91,4.12-4.44,4.12-4.44-1.84-4.44-4.12m20.95,35.02l-.03-10.39c-.64-4.83-4.79-8.54-9.81-8.54-5.67,0-10.22,4.58-10.22,10.25,0,3.8,2.1,7.05,5.11,8.68h14.95Zm-7.5-35.02c0-2.28,1.91-4.12,4.44-4.12s4.44,1.84,4.44,4.12-1.91,4.12-4.44,4.12-4.44-1.84-4.44-4.12"></path>
  <polygon class="cls-2" points="235.78 486.36 235.78 442.09 243.71 442.09 243.71 493.95 230.16 493.95 230.16 486.36 235.78 486.36"></polygon>
  <rect class="cls-2" x="249.09" y="442.09" width="7.96" height="51.86"></rect>
  <path class="cls-2" d="m284.23,486.85c-3.17-7.81,1.21-22.51,16.43-22.51,9.84,0,17.66,7.65,17.66,17.3s-7.82,17.3-17.66,17.3c-4.92,0-9.33-1.9-12.5-5.02-6.1.14-9.38,5.4-9.38,13.18h-7.66c0-11.55,4.87-18.5,13.12-20.26m26.56-5.21c0-5.7-4.49-10.28-10.14-10.28s-10.16,4.58-10.16,10.28,4.49,10.23,10.16,10.23,10.14-4.56,10.14-10.23"></path>
  <path class="cls-2" d="m334.53,436.45v3.63h-11.37v-3.63h1.56c-.62-3.07,1.69-5.97,5.05-5.97,2.18,0,4.17,1.36,4.84,3.36l-3.36,1.36c-.11-.79-.75-1.33-1.48-1.33-.89,0-1.51.71-1.51,1.57,0,.38.11.73.35,1h5.91Zm-9.65,5.64h7.96v51.86h-7.96v-51.86Z"></path>
  <path class="cls-2" d="m350.6,478.57c.03-9.71,7.23-17.17,17.32-17.17h8.95v-1.79h7.96v26.74h6.75v7.59h-40.98v-15.38Zm5.05-26.2c0-2.28,1.91-4.12,4.44-4.12s4.44,1.84,4.44,4.12-1.91,4.12-4.44,4.12-4.44-1.84-4.44-4.12m21.21,33.99v-16.9h-8.93c-5.67,0-9.68,4.07-9.68,9.17v7.73h18.61Zm-7.77-33.99c0-2.28,1.91-4.12,4.44-4.12s4.44,1.84,4.44,4.12-1.91,4.12-4.44,4.12-4.44-1.84-4.44-4.12"></path>
  <rect class="cls-2" x="384.45" y="486.36" width="18.47" height="7.59"></rect>
  <rect class="cls-2" x="402.38" y="486.36" width="18.47" height="7.59"></rect>
  <rect class="cls-2" x="420.32" y="486.36" width="18.47" height="7.59"></rect>
  <rect class="cls-2" x="438.25" y="486.36" width="18.47" height="7.59"></rect>
  <rect class="cls-2" x="456.18" y="486.36" width="27.42" height="7.59"></rect>
  <path class="cls-2" d="m527.44,493.95h-47.59v-7.59h11.02c-6.69-9.74-.73-25.98,14.55-25.98,7.21,0,13.63,3.77,16.19,10.82l-7.1,2.9c-1.05-4.42-4.41-6.67-9.14-6.67-5.65,0-10.19,4.58-10.19,10.25,0,3.8,2.07,7.05,5.08,8.68h27.18v7.59Z"></path>
  <path class="cls-2" d="m526.04,486.36h6.85c-.72-1.38-1.18-3.01-1.18-4.72,0-9.66,7.83-17.3,17.72-17.3s17.64,7.65,17.64,17.3-7.8,17.3-17.64,17.3c-4.92,0-9.33-1.9-12.5-4.99h-10.89v-7.59Zm23.39,5.51c5.65,0,10.11-4.56,10.11-10.23s-4.46-10.28-10.11-10.28-10.19,4.58-10.19,10.28,4.52,10.23,10.19,10.23"></path>
  <polygon class="cls-2" points="586 493.95 572.45 493.95 572.45 442.09 580.41 442.09 580.41 486.36 586 486.36 586 493.95"></polygon>
  <rect class="cls-2" x="585.04" y="486.36" width="22.34" height="7.59"></rect>
  <path class="cls-2" d="m604.92,486.36h43.66v-7.73c0-5.1-4.03-9.17-9.71-9.17h-26.43v-8.06h26.46c10.08,0,17.32,7.46,17.32,17.17v15.38h-51.3v-7.6Zm17.95,14.65c0-2.28,1.91-4.12,4.44-4.12s4.44,1.84,4.44,4.12-1.91,4.12-4.44,4.12-4.44-1.84-4.44-4.12"></path>
  <path class="cls-2" d="m.16,544.75v-19.81h5.89v19.79c0,4.17,2.92,7.11,6.64,7.11s6.66-2.96,6.66-7.11v-19.79h5.89v19.81c0,7.41-5.45,12.72-12.54,12.72s-12.52-5.31-12.52-12.72"></path>
  <polygon class="cls-2" points="67.39 556.78 61.55 556.78 61.55 538.61 50.94 556.24 50.9 556.24 40.28 538.61 40.28 556.78 34.43 556.78 34.43 524.56 36.64 524.56 50.92 547.06 65.18 524.56 67.39 524.56 67.39 556.78"></polygon>
  <polygon class="cls-2" points="109.87 556.78 104.03 556.78 104.03 538.61 93.42 556.24 93.38 556.24 82.76 538.61 82.76 556.78 76.91 556.78 76.91 524.56 79.12 524.56 93.4 547.06 107.66 524.56 109.87 524.56 109.87 556.78"></polygon>
  <path class="cls-2" d="m140.66,552.27l-1.98,4.5h-6.38l14.64-32.19h2.61l14.67,32.19h-6.4l-1.96-4.5h-15.21Zm7.6-17.36l-5.71,12.96h11.4l-5.69-12.96Z"></path>
  <polygon class="cls-2" points="191.14 556.78 171.07 556.78 171.07 524.94 176.92 524.94 176.92 551.25 191.14 551.25 191.14 556.78"></polygon>
  <rect class="cls-2" x="196.41" y="538.76" width="16.31" height="4.86"></rect>
  <path class="cls-2" d="m236.07,524.29c9.52,0,17.01,7.29,17.01,16.61,0,5.65-2.8,10.53-7.13,13.51,2.01.81,4.4,1.34,7.11,1.4l-1.94,5.27c-4.88-.28-8.1-2.19-10.63-4.52-1.38.53-2.86.83-4.44.83-9.5,0-16.95-7.25-16.95-16.49s7.47-16.61,16.97-16.61m0,27.47c5.85,0,11.1-4.52,11.1-10.9s-4.9-10.98-11.1-10.98-11.08,4.86-11.08,10.98,4.9,10.9,11.08,10.9"></path>
  <path class="cls-2" d="m260.81,544.75v-19.81h5.89v19.79c0,4.17,2.92,7.11,6.64,7.11s6.66-2.96,6.66-7.11v-19.79h5.89v19.81c0,7.41-5.45,12.72-12.54,12.72s-12.52-5.31-12.52-12.72"></path>
  <path class="cls-2" d="m295.08,524.94h10.78c6.46,0,11.34,4.6,11.34,10.23,0,4.05-2.53,7.35-6.06,8.65l8.65,12.96h-6.67l-7.03-12.68h-5.13v12.68h-5.85l-.02-31.84Zm10.72,15.44c2.96.02,5.49-2.11,5.49-4.96s-2.55-5.17-5.49-5.17h-4.88v10.13h4.88Z"></path>
  <path class="cls-2" d="m332.4,552.27l-1.98,4.5h-6.38l14.64-32.19h2.61l14.67,32.19h-6.4l-1.96-4.5h-15.21Zm7.6-17.36l-5.71,12.96h11.4l-5.69-12.96Z"></path>
  <path class="cls-2" d="m378.08,544.75v-19.81h5.89v19.79c0,4.17,2.92,7.11,6.64,7.11s6.66-2.96,6.66-7.11v-19.79h5.89v19.81c0,7.41-5.45,12.72-12.54,12.72s-12.52-5.31-12.52-12.72"></path>
  <polygon class="cls-2" points="439.09 557.13 437.43 557.13 418.19 536.49 418.19 556.8 412.35 556.8 412.35 524.58 414.03 524.58 433.24 545.2 433.24 524.88 439.09 524.88 439.09 557.13"></polygon>
  <rect class="cls-2" x="448.63" y="524.94" width="5.85" height="31.84"></rect>
  <polygon class="cls-2" points="478.29 557.11 475.76 557.11 461.32 524.94 467.62 524.94 477 546.63 486.43 524.94 492.81 524.94 478.29 557.11"></polygon>
  <polygon class="cls-2" points="505.42 538.03 517.23 538.03 517.23 543.03 505.42 543.03 505.42 551.27 519.39 551.27 519.39 556.78 499.64 556.78 499.64 524.94 519.39 524.94 519.39 530.41 505.42 530.41 505.42 538.03"></polygon>
  <path class="cls-2" d="m527.98,524.94h10.78c6.46,0,11.34,4.6,11.34,10.23,0,4.05-2.53,7.35-6.06,8.65l8.65,12.96h-6.67l-7.03-12.68h-5.13v12.68h-5.85l-.02-31.84Zm10.72,15.44c2.96.02,5.49-2.11,5.49-4.96s-2.55-5.17-5.49-5.17h-4.88v10.13h4.88Z"></path>
  <path class="cls-2" d="m557.74,551.23l3.61-3.46c1.36,2.37,4.44,4.01,7.54,4.01s5.77-1.54,5.77-3.91c0-2.73-3.95-4.25-7.62-5.67-4.07-1.58-8-3.93-8-8.73,0-5.14,4.84-8.97,10.65-8.97,4.9,0,8.37,2.61,9.52,5.57l-3.52,3.2c-1.01-2.09-3.67-3.38-5.99-3.38-2.67,0-4.84,1.64-4.84,3.73,0,2.39,3,3.24,6.81,4.7,4.78,1.9,8.85,4.5,8.85,9.4,0,5.77-5.49,9.44-11.59,9.44-5.25,0-9.8-2.61-11.2-5.95"></path>
  <rect class="cls-2" x="588.17" y="524.94" width="5.85" height="31.84"></rect>
  <polygon class="cls-2" points="615.82 530.43 615.82 556.78 609.97 556.78 609.97 530.43 601.34 530.43 601.34 524.94 624.41 524.94 624.41 530.43 615.82 530.43"></polygon>
  <polygon class="cls-2" points="629.07 524.94 635.66 524.94 642.69 536.97 649.73 524.94 656.32 524.94 645.58 543.15 645.58 556.78 639.79 556.78 639.79 543.15 629.07 524.94"></polygon>
</svg>
